<?xml version="1.0" standalone="no"?><!DOCTYPE svg PUBLIC "-//W3C//DTD SVG 1.1//EN" "http://www.w3.org/Graphics/SVG/1.1/DTD/svg11.dtd"><svg t="1699371498289" class="icon" viewBox="0 0 1024 1024" version="1.1" xmlns="http://www.w3.org/2000/svg" p-id="3910" xmlns:xlink="http://www.w3.org/1999/xlink" width="200" height="200"><path d="M958.2 620.4c-22.7-74.3-87.9-181.5-105.1-209C815.4 231.6 677.6 98.3 513.4 98.3c-162.2 0-298.6 130-338.2 306.5 0 0-83.1 129.7-109.3 215.6-4.7 15.6 12.5 28.6 25.7 19.4l72-49.5v16.3c0 176.1 140.1 318.9 313 318.9h73.7c172.9 0 313-142.8 313-318.9v-14.4l69.2 47.6c13.2 9.2 30.4-3.8 25.7-19.4z" p-id="3911"></path><path d="M671.9 274.4c-65 0-117.6 53.6-117.6 119.8v117.5c0 23.8-18.9 43-42.2 43-23.3 0-42.2-19.3-42.2-43V394.2c0-66.2-52.7-119.8-117.6-119.8-65 0-117.6 53.6-117.6 119.8v194.1c0 134.4 106.9 243.3 238.8 243.3h75.1c131.9 0 238.8-108.9 238.8-243.3v-33.6h2.2V394.2c-0.1-66.2-52.7-119.8-117.7-119.8z" fill="#FFFFFF" p-id="3912"></path><path d="M512 452.5l-55.4 73.9L512 599l55.5-72.6z" fill="#E2B80C" p-id="3913"></path><path d="M320.8 387.4a25.6 26.1 0 1 0 51.2 0 25.6 26.1 0 1 0-51.2 0Z" p-id="3914"></path><path d="M652.1 387.4a25.6 26.1 0 1 0 51.2 0 25.6 26.1 0 1 0-51.2 0Z" p-id="3915"></path></svg>