<?xml version="1.0" standalone="no"?><!DOCTYPE svg PUBLIC "-//W3C//DTD SVG 1.1//EN" "http://www.w3.org/Graphics/SVG/1.1/DTD/svg11.dtd"><svg t="1699020780806" class="icon" viewBox="0 0 1024 1024" version="1.1" xmlns="http://www.w3.org/2000/svg" p-id="6265" xmlns:xlink="http://www.w3.org/1999/xlink" width="200" height="200"><path d="M512 512m-512 0a512 512 0 1 0 1024 0 512 512 0 1 0-1024 0Z" fill="#007AFF" p-id="6266"></path><path d="M654.222222 369.777778a142.222222 142.222222 0 0 1 0 284.444444c-44.487111 0-91.107556-34.218667-139.861333-102.684444C465.635556 620.003556 419.015111 654.222222 374.528 654.222222a142.222222 142.222222 0 1 1 0-284.444444c44.487111 0 91.107556 34.218667 139.861333 102.684444C563.114667 403.996444 609.735111 369.777778 654.222222 369.777778z m-277.333333 56.888889a85.333333 85.333333 0 0 0 0 170.666666c31.431111 0 66.986667-28.444444 106.666667-85.333333-39.68-56.888889-75.235556-85.333333-106.666667-85.333333z m274.972444 0c-31.431111 0-66.986667 28.444444-106.666666 85.333333 39.68 56.888889 75.235556 85.333333 106.666666 85.333333a85.333333 85.333333 0 0 0 0-170.666666z" fill="#FFFFFF" p-id="6267"></path></svg>